<?xml version="1.0" encoding="UTF-8" standalone="no"?><svg width="676" height="236" viewBox="0 0 676 236" fill="none" xmlns="http://www.w3.org/2000/svg">
<path d="M118 168.871C55.4935 168.871 4.82202 146.095 4.82202 118C4.82202 89.9048 55.4935 67.1292 118 67.1292C180.506 67.1292 231.178 89.9048 231.178 118C231.178 146.095 180.506 168.871 118 168.871Z" stroke="white" stroke-width="9"/>
<path d="M168.871 118C168.871 180.506 146.095 231.178 118 231.178C89.9049 231.178 67.1292 180.506 67.1292 118C67.1292 55.4936 89.9049 4.82217 118 4.82217C146.095 4.82217 168.871 55.4936 168.871 118Z" stroke="white" stroke-width="9"/>
<path d="M153.971 82.0288C198.17 126.228 217.895 178.162 198.029 198.029C178.162 217.895 126.228 198.17 82.0288 153.971C37.8301 109.772 18.1048 57.8374 37.9711 37.9711C57.8374 18.1048 109.772 37.8301 153.971 82.0288Z" stroke="white" stroke-width="9"/>
<path d="M153.971 153.971C109.772 198.17 57.8372 217.895 37.9709 198.029C18.1046 178.163 37.8299 126.228 82.0286 82.0288C126.227 37.8301 178.162 18.1048 198.029 37.9711C217.895 57.8375 198.17 109.772 153.971 153.971Z" stroke="white" stroke-width="9"/>
<path d="M345.641 102.263C344.914 99.9799 343.935 97.9347 342.705 96.1278C341.501 94.2959 340.058 92.7401 338.376 91.4602C336.695 90.1553 334.775 89.1641 332.617 88.4865C330.484 87.8089 328.138 87.4702 325.578 87.4702C321.237 87.4702 317.322 88.5869 313.834 90.8203C310.346 93.0537 307.585 96.3286 305.553 100.645C303.545 104.936 302.541 110.193 302.541 116.417C302.541 122.665 303.558 127.948 305.59 132.264C307.623 136.58 310.408 139.855 313.947 142.089C317.485 144.322 321.513 145.439 326.03 145.439C330.221 145.439 333.872 144.586 336.984 142.879C340.121 141.173 342.542 138.764 344.249 135.652C345.98 132.515 346.846 128.826 346.846 124.585L349.857 125.15H327.799V115.551H358.101V124.322C358.101 130.796 356.721 136.417 353.96 141.185C351.225 145.928 347.436 149.592 342.592 152.177C337.774 154.762 332.253 156.054 326.03 156.054C319.054 156.054 312.93 154.448 307.661 151.236C302.416 148.024 298.325 143.469 295.389 137.572C292.453 131.649 290.985 124.623 290.985 116.492C290.985 110.344 291.838 104.823 293.545 99.9297C295.251 95.0362 297.648 90.883 300.734 87.4702C303.846 84.0322 307.497 81.4098 311.688 79.603C315.904 77.7711 320.509 76.8551 325.503 76.8551C329.669 76.8551 333.546 77.4699 337.134 78.6996C340.748 79.9292 343.96 81.6733 346.771 83.9318C349.606 86.1903 351.953 88.8755 353.81 91.9872C355.667 95.0739 356.921 98.4993 357.574 102.263H345.641ZM388.789 156.28C385.125 156.28 381.812 155.602 378.851 154.247C375.89 152.867 373.544 150.872 371.812 148.262C370.106 145.652 369.252 142.453 369.252 138.663C369.252 135.401 369.88 132.716 371.134 130.608C372.389 128.5 374.083 126.831 376.216 125.602C378.349 124.372 380.733 123.443 383.368 122.816C386.003 122.189 388.688 121.712 391.423 121.386C394.887 120.984 397.697 120.658 399.855 120.407C402.013 120.131 403.582 119.692 404.561 119.089C405.539 118.487 406.029 117.509 406.029 116.153V115.89C406.029 112.603 405.1 110.055 403.243 108.249C401.411 106.442 398.676 105.538 395.037 105.538C391.248 105.538 388.262 106.379 386.078 108.06C383.92 109.717 382.427 111.561 381.599 113.594L371.021 111.185C372.276 107.671 374.108 104.836 376.517 102.678C378.951 100.494 381.749 98.9133 384.911 97.9347C388.073 96.9309 391.398 96.429 394.887 96.429C397.195 96.429 399.642 96.705 402.227 97.2571C404.837 97.7841 407.271 98.7628 409.529 100.193C411.813 101.624 413.682 103.669 415.138 106.329C416.593 108.964 417.321 112.389 417.321 116.605V155H406.33V147.095H405.878C405.15 148.551 404.059 149.981 402.603 151.386C401.148 152.792 399.278 153.959 396.994 154.887C394.711 155.816 391.976 156.28 388.789 156.28ZM391.235 147.246C394.347 147.246 397.007 146.631 399.215 145.401C401.449 144.172 403.143 142.566 404.297 140.583C405.477 138.576 406.066 136.43 406.066 134.146V126.693C405.665 127.095 404.887 127.471 403.732 127.822C402.603 128.149 401.311 128.437 399.855 128.688C398.4 128.914 396.982 129.127 395.602 129.328C394.222 129.504 393.067 129.654 392.139 129.78C389.955 130.056 387.96 130.52 386.154 131.173C384.372 131.825 382.941 132.766 381.862 133.996C380.808 135.2 380.281 136.806 380.281 138.814C380.281 141.599 381.31 143.707 383.368 145.138C385.426 146.543 388.048 147.246 391.235 147.246ZM443.567 120.67V155H432.312V97.1818H443.115V106.592H443.831C445.161 103.531 447.243 101.071 450.079 99.2145C452.94 97.3575 456.541 96.429 460.882 96.429C464.822 96.429 468.273 97.2571 471.234 98.9134C474.195 100.545 476.491 102.979 478.123 106.216C479.754 109.453 480.569 113.456 480.569 118.224V155H469.314V119.579C469.314 115.388 468.223 112.113 466.039 109.754C463.856 107.37 460.857 106.178 457.043 106.178C454.433 106.178 452.112 106.743 450.079 107.872C448.072 109.001 446.478 110.658 445.299 112.841C444.144 114.999 443.567 117.609 443.567 120.67ZM512.49 156.28C508.826 156.28 505.513 155.602 502.552 154.247C499.591 152.867 497.245 150.872 495.513 148.262C493.807 145.652 492.953 142.453 492.953 138.663C492.953 135.401 493.581 132.716 494.836 130.608C496.09 128.5 497.784 126.831 499.917 125.602C502.05 124.372 504.434 123.443 507.069 122.816C509.704 122.189 512.389 121.712 515.125 121.386C518.588 120.984 521.398 120.658 523.556 120.407C525.715 120.131 527.283 119.692 528.262 119.089C529.24 118.487 529.73 117.509 529.73 116.153V115.89C529.73 112.603 528.801 110.055 526.944 108.249C525.112 106.442 522.377 105.538 518.738 105.538C514.949 105.538 511.963 106.379 509.779 108.06C507.621 109.717 506.128 111.561 505.3 113.594L494.723 111.185C495.977 107.671 497.809 104.836 500.218 102.678C502.653 100.494 505.451 98.9133 508.613 97.9347C511.775 96.9309 515.1 96.429 518.588 96.429C520.896 96.429 523.343 96.705 525.928 97.2571C528.538 97.7841 530.972 98.7628 533.23 100.193C535.514 101.624 537.384 103.669 538.839 106.329C540.295 108.964 541.022 112.389 541.022 116.605V155H530.031V147.095H529.579C528.851 148.551 527.76 149.981 526.304 151.386C524.849 152.792 522.979 153.959 520.696 154.887C518.412 155.816 515.677 156.28 512.49 156.28ZM514.936 147.246C518.048 147.246 520.708 146.631 522.917 145.401C525.15 144.172 526.844 142.566 527.998 140.583C529.178 138.576 529.767 136.43 529.767 134.146V126.693C529.366 127.095 528.588 127.471 527.434 127.822C526.304 128.149 525.012 128.437 523.556 128.688C522.101 128.914 520.683 129.127 519.303 129.328C517.923 129.504 516.768 129.654 515.84 129.78C513.657 130.056 511.662 130.52 509.855 131.173C508.073 131.825 506.643 132.766 505.564 133.996C504.51 135.2 503.983 136.806 503.983 138.814C503.983 141.599 505.011 143.707 507.069 145.138C509.127 146.543 511.749 147.246 514.936 147.246ZM583.003 97.1818V106.216H551.421V97.1818H583.003ZM559.89 83.3295H571.145V138.023C571.145 140.207 571.472 141.85 572.124 142.955C572.777 144.034 573.617 144.774 574.646 145.175C575.7 145.552 576.842 145.74 578.072 145.74C578.975 145.74 579.765 145.677 580.443 145.552C581.121 145.426 581.648 145.326 582.024 145.251L584.057 154.548C583.404 154.799 582.476 155.05 581.271 155.301C580.067 155.577 578.561 155.728 576.754 155.753C573.793 155.803 571.032 155.276 568.473 154.172C565.913 153.068 563.843 151.361 562.262 149.053C560.681 146.744 559.89 143.845 559.89 140.357V83.3295ZM607.95 77.9091V155H596.695V77.9091H607.95ZM630.206 176.682C628.524 176.682 626.994 176.544 625.613 176.268C624.233 176.017 623.204 175.741 622.527 175.44L625.237 166.217C627.295 166.769 629.127 167.008 630.733 166.933C632.339 166.857 633.757 166.255 634.986 165.126C636.241 163.996 637.345 162.152 638.299 159.592L639.692 155.753L618.537 97.1818H630.582L645.225 142.051H645.827L660.47 97.1818H672.553L648.726 162.717C647.622 165.728 646.216 168.275 644.51 170.358C642.803 172.466 640.771 174.047 638.412 175.101C636.053 176.155 633.318 176.682 630.206 176.682Z" fill="white"/>
<path d="M118 168.871C55.4935 168.871 4.82202 146.095 4.82202 118C4.82202 89.9048 55.4935 67.1292 118 67.1292C180.506 67.1292 231.178 89.9048 231.178 118C231.178 146.095 180.506 168.871 118 168.871Z" stroke="white" stroke-width="9"/>
<path d="M168.871 118C168.871 180.506 146.095 231.178 118 231.178C89.9049 231.178 67.1292 180.506 67.1292 118C67.1292 55.4936 89.9049 4.82217 118 4.82217C146.095 4.82217 168.871 55.4936 168.871 118Z" stroke="white" stroke-width="9"/>
<path d="M153.971 82.0288C198.17 126.228 217.895 178.162 198.029 198.029C178.162 217.895 126.228 198.17 82.0288 153.971C37.8301 109.772 18.1048 57.8374 37.9711 37.9711C57.8374 18.1048 109.772 37.8301 153.971 82.0288Z" stroke="white" stroke-width="9"/>
<path d="M153.971 153.971C109.772 198.17 57.8372 217.895 37.9709 198.029C18.1046 178.163 37.8299 126.228 82.0286 82.0288C126.227 37.8301 178.162 18.1048 198.029 37.9711C217.895 57.8375 198.17 109.772 153.971 153.971Z" stroke="white" stroke-width="9"/>
</svg>
