<?xml version="1.0" encoding="UTF-8" standalone="no"?><svg width="674" height="232" viewBox="0 0 674 232" fill="none" xmlns="http://www.w3.org/2000/svg">
<path d="M116 161.371C85.3394 161.371 57.847 155.774 38.2258 146.955C18.086 137.902 8.32197 126.532 8.32197 116C8.32197 105.468 18.086 94.0978 38.2258 85.0454C57.847 76.2261 85.3394 70.6291 116 70.6291C146.66 70.6291 174.153 76.2261 193.774 85.0454C213.914 94.0978 223.678 105.468 223.678 116C223.678 126.532 213.914 137.902 193.774 146.955C174.153 155.774 146.66 161.371 116 161.371Z" stroke="black" stroke-width="11"/>
<path d="M161.371 116C161.371 146.661 155.774 174.153 146.955 193.774C137.903 213.914 126.532 223.678 116 223.678C105.468 223.678 94.0981 213.914 85.0457 193.774C76.2264 174.153 70.6294 146.661 70.6294 116C70.6294 85.3397 76.2264 57.8473 85.0457 38.2261C94.0981 18.0863 105.468 8.3222 116 8.3222C126.532 8.3222 137.903 18.0863 146.955 38.2261C155.774 57.8473 161.371 85.3397 161.371 116Z" stroke="black" stroke-width="11"/>
<path d="M148.082 83.9179C169.762 105.598 185.245 128.996 192.883 149.106C200.723 169.748 199.587 184.693 192.14 192.14C184.693 199.587 169.748 200.723 149.106 192.883C128.996 185.245 105.598 169.762 83.9179 148.082C62.2377 126.402 46.7554 103.004 39.1173 82.8936C31.2773 62.2516 32.4131 47.3073 39.8602 39.8602C47.3074 32.4131 62.2517 31.2772 82.8937 39.1172C103.004 46.7553 126.402 62.2377 148.082 83.9179Z" stroke="black" stroke-width="11"/>
<path d="M148.082 148.082C126.402 169.762 103.004 185.245 82.8933 192.883C62.2514 200.723 47.307 199.587 39.8599 192.14C32.4128 184.693 31.2769 169.748 39.1169 149.106C46.755 128.996 62.2374 105.598 83.9176 83.9179C105.598 62.2377 128.996 46.7554 149.106 39.1173C169.748 31.2773 184.692 32.4131 192.139 39.8602C199.587 47.3074 200.722 62.2517 192.882 82.8937C185.244 103.004 169.762 126.402 148.082 148.082Z" stroke="black" stroke-width="11"/>
<path d="M343.641 102.263C342.914 99.9799 341.935 97.9347 340.705 96.1278C339.501 94.2959 338.058 92.7401 336.376 91.4602C334.695 90.1553 332.775 89.1641 330.617 88.4865C328.484 87.8089 326.138 87.4702 323.578 87.4702C319.237 87.4702 315.322 88.5869 311.834 90.8203C308.346 93.0537 305.585 96.3286 303.553 100.645C301.545 104.936 300.541 110.193 300.541 116.417C300.541 122.665 301.558 127.948 303.59 132.264C305.623 136.58 308.408 139.855 311.947 142.089C315.485 144.322 319.513 145.439 324.03 145.439C328.221 145.439 331.872 144.586 334.984 142.879C338.121 141.173 340.542 138.764 342.249 135.652C343.98 132.515 344.846 128.826 344.846 124.585L347.857 125.15H325.799V115.551H356.101V124.322C356.101 130.796 354.721 136.417 351.96 141.185C349.225 145.928 345.436 149.592 340.592 152.177C335.774 154.762 330.253 156.054 324.03 156.054C317.054 156.054 310.93 154.448 305.661 151.236C300.416 148.024 296.325 143.469 293.389 137.572C290.453 131.649 288.985 124.623 288.985 116.492C288.985 110.344 289.838 104.823 291.545 99.9297C293.251 95.0362 295.648 90.883 298.734 87.4702C301.846 84.0322 305.497 81.4098 309.688 79.603C313.904 77.7711 318.509 76.8551 323.503 76.8551C327.669 76.8551 331.546 77.4699 335.134 78.6996C338.748 79.9292 341.96 81.6733 344.771 83.9318C347.606 86.1903 349.953 88.8755 351.81 91.9872C353.667 95.0739 354.921 98.4993 355.574 102.263H343.641ZM386.789 156.28C383.125 156.28 379.812 155.602 376.851 154.247C373.89 152.867 371.544 150.872 369.812 148.262C368.106 145.652 367.252 142.453 367.252 138.663C367.252 135.401 367.88 132.716 369.134 130.608C370.389 128.5 372.083 126.831 374.216 125.602C376.349 124.372 378.733 123.443 381.368 122.816C384.003 122.189 386.688 121.712 389.423 121.386C392.887 120.984 395.697 120.658 397.855 120.407C400.013 120.131 401.582 119.692 402.561 119.089C403.539 118.487 404.029 117.509 404.029 116.153V115.89C404.029 112.603 403.1 110.055 401.243 108.249C399.411 106.442 396.676 105.538 393.037 105.538C389.248 105.538 386.262 106.379 384.078 108.06C381.92 109.717 380.427 111.561 379.599 113.594L369.021 111.185C370.276 107.671 372.108 104.836 374.517 102.678C376.951 100.494 379.749 98.9133 382.911 97.9347C386.073 96.9309 389.398 96.429 392.887 96.429C395.195 96.429 397.642 96.705 400.227 97.2571C402.837 97.7841 405.271 98.7628 407.529 100.193C409.813 101.624 411.682 103.669 413.138 106.329C414.593 108.964 415.321 112.389 415.321 116.605V155H404.33V147.095H403.878C403.15 148.551 402.059 149.981 400.603 151.386C399.148 152.792 397.278 153.959 394.994 154.887C392.711 155.816 389.976 156.28 386.789 156.28ZM389.235 147.246C392.347 147.246 395.007 146.631 397.215 145.401C399.449 144.172 401.143 142.566 402.297 140.583C403.477 138.576 404.066 136.43 404.066 134.146V126.693C403.665 127.095 402.887 127.471 401.732 127.822C400.603 128.149 399.311 128.437 397.855 128.688C396.4 128.914 394.982 129.127 393.602 129.328C392.222 129.504 391.067 129.654 390.139 129.78C387.955 130.056 385.96 130.52 384.154 131.173C382.372 131.825 380.941 132.766 379.862 133.996C378.808 135.2 378.281 136.806 378.281 138.814C378.281 141.599 379.31 143.707 381.368 145.138C383.426 146.543 386.048 147.246 389.235 147.246ZM441.567 120.67V155H430.312V97.1818H441.115V106.592H441.831C443.161 103.531 445.243 101.071 448.079 99.2145C450.94 97.3575 454.541 96.429 458.882 96.429C462.822 96.429 466.273 97.2571 469.234 98.9134C472.195 100.545 474.491 102.979 476.123 106.216C477.754 109.453 478.569 113.456 478.569 118.224V155H467.314V119.579C467.314 115.388 466.223 112.113 464.039 109.754C461.856 107.37 458.857 106.178 455.043 106.178C452.433 106.178 450.112 106.743 448.079 107.872C446.072 109.001 444.478 110.658 443.299 112.841C442.144 114.999 441.567 117.609 441.567 120.67ZM510.49 156.28C506.826 156.28 503.513 155.602 500.552 154.247C497.591 152.867 495.245 150.872 493.513 148.262C491.807 145.652 490.953 142.453 490.953 138.663C490.953 135.401 491.581 132.716 492.836 130.608C494.09 128.5 495.784 126.831 497.917 125.602C500.05 124.372 502.434 123.443 505.069 122.816C507.704 122.189 510.389 121.712 513.125 121.386C516.588 120.984 519.398 120.658 521.556 120.407C523.715 120.131 525.283 119.692 526.262 119.089C527.24 118.487 527.73 117.509 527.73 116.153V115.89C527.73 112.603 526.801 110.055 524.944 108.249C523.112 106.442 520.377 105.538 516.738 105.538C512.949 105.538 509.963 106.379 507.779 108.06C505.621 109.717 504.128 111.561 503.3 113.594L492.723 111.185C493.977 107.671 495.809 104.836 498.218 102.678C500.653 100.494 503.451 98.9133 506.613 97.9347C509.775 96.9309 513.1 96.429 516.588 96.429C518.896 96.429 521.343 96.705 523.928 97.2571C526.538 97.7841 528.972 98.7628 531.23 100.193C533.514 101.624 535.384 103.669 536.839 106.329C538.295 108.964 539.022 112.389 539.022 116.605V155H528.031V147.095H527.579C526.851 148.551 525.76 149.981 524.304 151.386C522.849 152.792 520.979 153.959 518.696 154.887C516.412 155.816 513.677 156.28 510.49 156.28ZM512.936 147.246C516.048 147.246 518.708 146.631 520.917 145.401C523.15 144.172 524.844 142.566 525.998 140.583C527.178 138.576 527.767 136.43 527.767 134.146V126.693C527.366 127.095 526.588 127.471 525.434 127.822C524.304 128.149 523.012 128.437 521.556 128.688C520.101 128.914 518.683 129.127 517.303 129.328C515.923 129.504 514.768 129.654 513.84 129.78C511.657 130.056 509.662 130.52 507.855 131.173C506.073 131.825 504.643 132.766 503.564 133.996C502.51 135.2 501.983 136.806 501.983 138.814C501.983 141.599 503.011 143.707 505.069 145.138C507.127 146.543 509.749 147.246 512.936 147.246ZM581.003 97.1818V106.216H549.421V97.1818H581.003ZM557.89 83.3295H569.145V138.023C569.145 140.207 569.472 141.85 570.124 142.955C570.777 144.034 571.617 144.774 572.646 145.175C573.7 145.552 574.842 145.74 576.072 145.74C576.975 145.74 577.765 145.677 578.443 145.552C579.121 145.426 579.648 145.326 580.024 145.251L582.057 154.548C581.404 154.799 580.476 155.05 579.271 155.301C578.067 155.577 576.561 155.728 574.754 155.753C571.793 155.803 569.032 155.276 566.473 154.172C563.913 153.068 561.843 151.361 560.262 149.053C558.681 146.744 557.89 143.845 557.89 140.357V83.3295ZM605.95 77.9091V155H594.695V77.9091H605.95ZM628.206 176.682C626.524 176.682 624.994 176.544 623.613 176.268C622.233 176.017 621.204 175.741 620.527 175.44L623.237 166.217C625.295 166.769 627.127 167.008 628.733 166.933C630.339 166.857 631.757 166.255 632.986 165.126C634.241 163.996 635.345 162.152 636.299 159.592L637.692 155.753L616.537 97.1818H628.582L643.225 142.051H643.827L658.47 97.1818H670.553L646.726 162.717C645.622 165.728 644.216 168.275 642.51 170.358C640.803 172.466 638.771 174.047 636.412 175.101C634.053 176.155 631.318 176.682 628.206 176.682Z" fill="black"/>
</svg>
