<?xml version="1.0" encoding="UTF-8" standalone="no"?><svg width="1088" height="1088" viewBox="0 0 1088 1088" fill="none" xmlns="http://www.w3.org/2000/svg">
<g filter="url(#filter0_d_4_81)">
<rect x="4" width="1080" height="1080" rx="540" fill="black"/>
<path d="M544.156 656.656C466.251 656.656 396.324 642.438 346.341 619.972C295.18 596.976 269.656 567.788 269.656 540.156C269.656 512.524 295.18 483.337 346.341 460.341C396.324 437.875 466.251 423.656 544.156 423.656C622.062 423.656 691.989 437.875 741.972 460.341C793.132 483.337 818.656 512.525 818.656 540.156C818.656 567.788 793.132 596.976 741.972 619.972C691.989 642.438 622.062 656.656 544.156 656.656Z" stroke="white" stroke-width="25"/>
<path d="M660.656 540.156C660.656 618.062 646.438 687.989 623.972 737.971C600.976 789.132 571.788 814.656 544.156 814.656C516.525 814.656 487.337 789.132 464.341 737.971C441.875 687.989 427.656 618.062 427.656 540.156C427.656 462.251 441.875 392.324 464.341 342.341C487.337 291.18 516.525 265.656 544.156 265.656C571.788 265.656 600.976 291.18 623.972 342.341C646.438 392.324 660.656 462.251 660.656 540.156Z" stroke="white" stroke-width="25"/>
<path d="M626.534 457.778C681.622 512.866 721.014 572.366 740.471 623.595C760.387 676.031 757.796 714.718 738.257 734.257C718.719 753.796 680.031 756.387 627.595 736.471C576.366 717.014 516.866 677.622 461.778 622.534C406.691 567.447 367.299 507.947 347.842 456.718C327.926 404.281 330.517 365.594 350.056 346.056C369.594 326.517 408.281 323.926 460.718 343.842C511.947 363.299 571.447 402.691 626.534 457.778Z" stroke="white" stroke-width="25"/>
<path d="M626.181 622.181C571.131 677.23 511.689 716.577 460.541 736.003C408.136 755.907 369.722 753.216 350.409 733.904C331.097 714.591 328.406 676.177 348.309 623.772C367.736 572.624 407.083 513.182 462.132 458.132C517.182 403.083 576.624 363.736 627.772 344.309C680.177 324.406 718.591 327.096 737.904 346.409C757.216 365.722 759.907 404.136 740.004 456.541C720.577 507.689 681.23 567.131 626.181 622.181Z" stroke="white" stroke-width="26"/>
</g>
<defs>
<filter id="filter0_d_4_81" x="0" y="0" width="1088" height="1088" filterUnits="userSpaceOnUse" color-interpolation-filters="sRGB">
<feFlood flood-opacity="0" result="BackgroundImageFix"/>
<feColorMatrix in="SourceAlpha" type="matrix" values="0 0 0 0 0 0 0 0 0 0 0 0 0 0 0 0 0 0 127 0" result="hardAlpha"/>
<feOffset dy="4"/>
<feGaussianBlur stdDeviation="2"/>
<feComposite in2="hardAlpha" operator="out"/>
<feColorMatrix type="matrix" values="0 0 0 0 0 0 0 0 0 0 0 0 0 0 0 0 0 0 0.25 0"/>
<feBlend mode="normal" in2="BackgroundImageFix" result="effect1_dropShadow_4_81"/>
<feBlend mode="normal" in="SourceGraphic" in2="effect1_dropShadow_4_81" result="shape"/>
</filter>
</defs>
</svg>
